<svg width="16" height="16" viewBox="0 0 16 16" fill="none" xmlns="http://www.w3.org/2000/svg">
<g id="icon-park-solid:check-one" clip-path="url(#clip0_346_748)">
<g id="Mask group">
<mask id="mask0_346_748" style="mask-type:luminance" maskUnits="userSpaceOnUse" x="0" y="0" width="16" height="16">
<g id="Group">
<g id="Group_2">
<path id="Vector" d="M7.99992 14.6667C8.87556 14.6678 9.74278 14.4958 10.5518 14.1607C11.3607 13.8256 12.0955 13.334 12.7139 12.714C13.3339 12.0956 13.8255 11.3608 14.1606 10.5519C14.4957 9.74287 14.6677 8.87565 14.6666 8.00002C14.6677 7.12438 14.4957 6.25716 14.1606 5.44818C13.8255 4.6392 13.3339 3.90441 12.7139 3.28602C12.0955 2.66607 11.3607 2.17442 10.5518 1.83932C9.74278 1.50422 8.87556 1.33227 7.99992 1.33335C7.12429 1.33227 6.25707 1.50422 5.44809 1.83932C4.63911 2.17442 3.90431 2.66607 3.28592 3.28602C2.66598 3.90441 2.17433 4.6392 1.83923 5.44818C1.50413 6.25716 1.33218 7.12438 1.33326 8.00002C1.33218 8.87565 1.50413 9.74287 1.83923 10.5519C2.17433 11.3608 2.66598 12.0956 3.28592 12.714C3.90431 13.334 4.63911 13.8256 5.44809 14.1607C6.25707 14.4958 7.12429 14.6678 7.99992 14.6667Z" fill="white" stroke="white" stroke-width="1.5" stroke-linejoin="round"/>
<path id="Vector_2" d="M5.33325 8L7.33325 10L11.3333 6" stroke="black" stroke-width="1.5" stroke-linecap="round" stroke-linejoin="round"/>
</g>
</g>
</mask>
<g mask="url(#mask0_346_748)">
<path id="Vector_3" d="M0 0H16V16H0V0Z" fill="white"/>
</g>
</g>
</g>
<defs>
<clipPath id="clip0_346_748">
<rect width="16" height="16" fill="white"/>
</clipPath>
</defs>
</svg>
