<svg width="31" height="29" viewBox="0 0 31 29" fill="none" xmlns="http://www.w3.org/2000/svg">
    <path d="M29.1219 6.79687C28.9869 6.71544 28.8327 6.66856 28.6738 6.66063C28.515 6.65271 28.3566 6.684 28.2137 6.75156C23.1828 9.13046 19.5898 8.01578 15.7918 6.83992C11.7969 5.61082 7.67188 4.3364 1.96367 7.03023C1.80603 7.10463 1.67314 7.22031 1.58013 7.36409C1.48711 7.50788 1.43769 7.674 1.4375 7.84359V21.4294C1.43748 21.5832 1.47793 21.7344 1.55504 21.8689C1.63216 22.0034 1.74341 22.1167 1.87831 22.1981C2.01322 22.2796 2.16735 22.3266 2.3262 22.3346C2.48505 22.3426 2.64339 22.3114 2.78633 22.2439C7.81719 19.865 11.4102 20.9797 15.2141 22.1555C17.4688 22.8522 19.7656 23.5625 22.3625 23.5625C24.3652 23.5625 26.5496 23.1411 29.0316 21.9698C29.1893 21.8954 29.3222 21.7797 29.4152 21.6359C29.5082 21.4921 29.5576 21.326 29.5578 21.1564V7.57058C29.5592 7.41642 29.5199 7.26446 29.4437 7.12907C29.3674 6.99368 29.2566 6.87934 29.1219 6.79687ZM6.125 17.2187C6.125 17.4591 6.02623 17.6896 5.85041 17.8596C5.6746 18.0295 5.43614 18.125 5.1875 18.125C4.93886 18.125 4.7004 18.0295 4.52459 17.8596C4.34877 17.6896 4.25 17.4591 4.25 17.2187V9.96875C4.25 9.72839 4.34877 9.49788 4.52459 9.32793C4.7004 9.15797 4.93886 9.06249 5.1875 9.06249C5.43614 9.06249 5.6746 9.15797 5.85041 9.32793C6.02623 9.49788 6.125 9.72839 6.125 9.96875V17.2187ZM15.5 18.125C14.7583 18.125 14.0333 17.9124 13.4166 17.5141C12.7999 17.1158 12.3193 16.5496 12.0355 15.8872C11.7516 15.2248 11.6774 14.496 11.8221 13.7928C11.9668 13.0896 12.3239 12.4437 12.8484 11.9367C13.3728 11.4298 14.041 11.0845 14.7684 10.9446C15.4958 10.8048 16.2498 10.8766 16.9351 11.1509C17.6203 11.4253 18.206 11.8899 18.618 12.4861C19.0301 13.0822 19.25 13.783 19.25 14.5C19.25 15.4614 18.8549 16.3834 18.1517 17.0633C17.4484 17.7431 16.4946 18.125 15.5 18.125ZM26.75 19.0312C26.75 19.2716 26.6512 19.5021 26.4754 19.6721C26.2996 19.842 26.0611 19.9375 25.8125 19.9375C25.5639 19.9375 25.3254 19.842 25.1496 19.6721C24.9738 19.5021 24.875 19.2716 24.875 19.0312V11.7812C24.875 11.5409 24.9738 11.3104 25.1496 11.1404C25.3254 10.9705 25.5639 10.875 25.8125 10.875C26.0611 10.875 26.2996 10.9705 26.4754 11.1404C26.6512 11.3104 26.75 11.5409 26.75 11.7812V19.0312Z"
          fill="white"/>
</svg>
