<svg width="31" height="29" viewBox="0 0 31 29" fill="none" xmlns="http://www.w3.org/2000/svg">
    <path d="M28.6249 21.75H27.6874V14.7911L27.862 15.0268C27.9311 15.1294 28.0209 15.2175 28.126 15.2856C28.2312 15.3538 28.3496 15.4007 28.474 15.4234C28.5985 15.4461 28.7264 15.4442 28.8501 15.4179C28.9737 15.3915 29.0906 15.3412 29.1936 15.27C29.2966 15.1987 29.3836 15.1081 29.4493 15.0035C29.5151 14.8988 29.5582 14.7824 29.5762 14.6612C29.5941 14.5401 29.5864 14.4166 29.5537 14.2984C29.5209 14.1801 29.4637 14.0695 29.3855 13.9732L24.698 7.62949C24.6338 7.54354 24.5544 7.46916 24.4636 7.40972L16.5546 2.12628L16.5429 2.11835C16.2348 1.91963 15.8727 1.81358 15.5023 1.81358C15.1319 1.81358 14.7698 1.91963 14.4617 2.11835L14.4499 2.12628L6.52923 7.41085C6.43841 7.47029 6.35908 7.54468 6.29485 7.63062L1.60735 13.9744C1.52915 14.0707 1.47193 14.1813 1.43916 14.2995C1.40639 14.4177 1.39874 14.5412 1.41668 14.6624C1.43461 14.7836 1.47776 14.9 1.54351 15.0046C1.60927 15.1092 1.69627 15.1999 1.79926 15.2711C1.90226 15.3423 2.01911 15.3926 2.14278 15.419C2.26644 15.4454 2.39435 15.4472 2.51878 15.4245C2.64322 15.4018 2.7616 15.3549 2.86679 15.2868C2.97197 15.2186 3.06178 15.1305 3.13079 15.0279L3.31243 14.7911V21.75H2.37493C2.12629 21.75 1.88783 21.8455 1.71202 22.0154C1.5362 22.1854 1.43743 22.4159 1.43743 22.6562C1.43743 22.8966 1.5362 23.1271 1.71202 23.2971C1.88783 23.467 2.12629 23.5625 2.37493 23.5625H28.6249C28.8736 23.5625 29.112 23.467 29.2878 23.2971C29.4637 23.1271 29.5624 22.8966 29.5624 22.6562C29.5624 22.4159 29.4637 22.1854 29.2878 22.0154C29.112 21.8455 28.8736 21.75 28.6249 21.75ZM13.6249 9.0625H17.3749C17.6236 9.0625 17.862 9.15798 18.0378 9.32793C18.2137 9.49788 18.3124 9.72839 18.3124 9.96875C18.3124 10.2091 18.2137 10.4396 18.0378 10.6096C17.862 10.7795 17.6236 10.875 17.3749 10.875H13.6249C13.3763 10.875 13.1378 10.7795 12.962 10.6096C12.7862 10.4396 12.6874 10.2091 12.6874 9.96875C12.6874 9.72839 12.7862 9.49788 12.962 9.32793C13.1378 9.15798 13.3763 9.0625 13.6249 9.0625ZM19.7937 13.5937L15.4999 16.5583L11.2062 13.5937H19.7937ZM8.93743 14.2542L13.8874 17.6719L8.93743 21.0896V14.2542ZM11.2062 21.75L15.4999 18.7854L19.7937 21.75H11.2062ZM22.0624 21.0896L17.1124 17.6719L22.0624 14.2542V21.0896Z"
          fill="white"/>
</svg>
