<svg width="31" height="29" viewBox="0 0 31 29" fill="none" xmlns="http://www.w3.org/2000/svg">
    <g clip-path="url(#clip0_346_1023)">
        <path d="M19.7736 22.1612C19.8659 22.2979 19.9182 22.4562 19.9251 22.6193C19.9319 22.7824 19.8931 22.9443 19.8127 23.0879C19.7323 23.2314 19.6132 23.3513 19.4681 23.4348C19.3231 23.5184 19.1573 23.5625 18.9885 23.5625H1.69862C1.52974 23.5625 1.36401 23.5184 1.21893 23.4348C1.07385 23.3513 0.95481 23.2314 0.874383 23.0879C0.793956 22.9443 0.75513 22.7824 0.762009 22.6193C0.768887 22.4562 0.821213 22.2979 0.91346 22.1612C2.23311 20.1976 4.17419 18.6991 6.44705 17.8894C5.19057 17.0808 4.23663 15.9027 3.72631 14.5295C3.21599 13.1563 3.17638 11.6607 3.61333 10.2641C4.05029 8.8674 4.94061 7.64373 6.15265 6.77402C7.36468 5.90431 8.83407 5.43474 10.3435 5.43474C11.853 5.43474 13.3224 5.90431 14.5344 6.77402C15.7465 7.64373 16.6368 8.8674 17.0737 10.2641C17.5107 11.6607 17.4711 13.1563 16.9608 14.5295C16.4504 15.9027 15.4965 17.0808 14.24 17.8894C16.5129 18.6991 18.454 20.1976 19.7736 22.1612ZM30.0756 22.1442C28.7556 20.1889 26.8188 18.6969 24.5525 17.8894C26.0359 16.9235 27.0827 15.4475 27.4799 13.7618C27.8772 12.0761 27.595 10.3074 26.6907 8.8158C25.7865 7.32416 24.3283 6.22167 22.6128 5.73274C20.8973 5.24381 19.0536 5.40518 17.4568 6.18402C17.3958 6.21449 17.3424 6.25757 17.3005 6.3102C17.2585 6.36283 17.2291 6.42373 17.2142 6.48858C17.1994 6.55343 17.1994 6.62065 17.2144 6.68547C17.2294 6.7503 17.2589 6.81115 17.301 6.86371C18.4883 8.29537 19.1701 10.0569 19.2467 11.8904C19.3232 13.7238 18.7904 15.5327 17.7264 17.0522C17.6576 17.1515 17.6322 17.2731 17.6556 17.3904C17.6791 17.5077 17.7496 17.6113 17.8517 17.6787C19.2392 18.6146 20.4268 19.8004 21.3498 21.1711C21.722 21.7222 21.8741 22.3854 21.7775 23.0369C21.7667 23.1017 21.7705 23.168 21.7888 23.2312C21.807 23.2945 21.8393 23.3531 21.8833 23.4031C21.9273 23.4531 21.9821 23.4932 22.0437 23.5208C22.1054 23.5483 22.1725 23.5625 22.2404 23.5625H29.3068C29.5133 23.5626 29.7139 23.4967 29.8777 23.3753C30.0415 23.2538 30.1593 23.0835 30.2127 22.8907C30.2453 22.764 30.2499 22.632 30.2263 22.5034C30.2027 22.3748 30.1513 22.2524 30.0756 22.1442Z"
              fill="white"/>
    </g>
    <defs>
        <clipPath id="clip0_346_1023">
            <rect width="30" height="29" fill="white" transform="translate(0.5)"/>
        </clipPath>
    </defs>
</svg>
