<svg width="30" height="29" viewBox="0 0 30 29" fill="none" xmlns="http://www.w3.org/2000/svg">
    <path d="M19.6875 4.59695V3.625C19.6875 2.90394 19.3912 2.21242 18.8637 1.70255C18.3363 1.19269 17.6209 0.90625 16.875 0.90625H13.125C12.3791 0.90625 11.6637 1.19269 11.1363 1.70255C10.6088 2.21242 10.3125 2.90394 10.3125 3.625V4.59695C8.75166 4.81687 7.32467 5.57203 6.292 6.72459C5.25933 7.87715 4.68985 9.35024 4.6875 10.875V24.4688C4.6875 24.9495 4.88504 25.4105 5.23667 25.7504C5.58831 26.0903 6.06522 26.2812 6.5625 26.2812H23.4375C23.9348 26.2812 24.4117 26.0903 24.7633 25.7504C25.115 25.4105 25.3125 24.9495 25.3125 24.4688V10.875C25.3102 9.35024 24.7407 7.87715 23.708 6.72459C22.6753 5.57203 21.2483 4.81687 19.6875 4.59695ZM12.1875 3.625C12.1875 3.38465 12.2863 3.15414 12.4621 2.98418C12.6379 2.81423 12.8764 2.71875 13.125 2.71875H16.875C17.1236 2.71875 17.3621 2.81423 17.5379 2.98418C17.7137 3.15414 17.8125 3.38465 17.8125 3.625V4.53125H12.1875V3.625ZM13.125 8.15625H16.875C17.1236 8.15625 17.3621 8.25173 17.5379 8.42168C17.7137 8.59164 17.8125 8.82215 17.8125 9.0625C17.8125 9.30285 17.7137 9.53336 17.5379 9.70332C17.3621 9.87327 17.1236 9.96875 16.875 9.96875H13.125C12.8764 9.96875 12.6379 9.87327 12.4621 9.70332C12.2863 9.53336 12.1875 9.30285 12.1875 9.0625C12.1875 8.82215 12.2863 8.59164 12.4621 8.42168C12.6379 8.25173 12.8764 8.15625 13.125 8.15625ZM20.625 24.4688H9.375V19.9375H15.9375V20.8438C15.9375 21.0841 16.0363 21.3146 16.2121 21.4846C16.3879 21.6545 16.6264 21.75 16.875 21.75C17.1236 21.75 17.3621 21.6545 17.5379 21.4846C17.7137 21.3146 17.8125 21.0841 17.8125 20.8438V19.9375H20.625V24.4688ZM20.625 18.125H9.375V17.2188C9.375 16.738 9.57254 16.277 9.92418 15.9371C10.2758 15.5972 10.7527 15.4062 11.25 15.4062H18.75C19.2473 15.4062 19.7242 15.5972 20.0758 15.9371C20.4275 16.277 20.625 16.738 20.625 17.2188V18.125Z"
          fill="white"/>
</svg>
