<svg width="18" height="19" viewBox="0 0 18 19" fill="none" xmlns="http://www.w3.org/2000/svg">
<g id="mdi:coins">
<path id="Vector" d="M11.2499 3.5C12.4366 3.5 13.5966 3.85189 14.5833 4.51118C15.57 5.17047 16.339 6.10754 16.7931 7.2039C17.2473 8.30026 17.3661 9.50666 17.1346 10.6705C16.9031 11.8344 16.3316 12.9035 15.4925 13.7426C14.6534 14.5818 13.5843 15.1532 12.4204 15.3847C11.2565 15.6162 10.0501 15.4974 8.95376 15.0433C7.85741 14.5892 6.92033 13.8201 6.26105 12.8334C5.60176 11.8467 5.24986 10.6867 5.24986 9.5C5.24986 7.9087 5.882 6.38258 7.00722 5.25736C8.13244 4.13214 9.65856 3.5 11.2499 3.5ZM2.24986 9.5C2.25093 10.4297 2.53992 11.3362 3.07711 12.095C3.61431 12.8538 4.37334 13.4276 5.24986 13.7375V15.305C3.96587 14.9694 2.82937 14.2176 2.01823 13.1672C1.20709 12.1168 0.76709 10.8271 0.76709 9.5C0.76709 8.17287 1.20709 6.88319 2.01823 5.8328C2.82937 4.78241 3.96587 4.03059 5.24986 3.695V5.2625C4.37334 5.5724 3.61431 6.14618 3.07711 6.90497C2.53992 7.66375 2.25093 8.5703 2.24986 9.5Z" fill="white"/>
</g>
</svg>
