<svg width="10" height="10" viewBox="0 0 10 10" fill="none" xmlns="http://www.w3.org/2000/svg">
<g id="ph:money-wavy-fill">
<path id="Vector" d="M9.54063 2.34375C9.49564 2.31568 9.44424 2.29951 9.39128 2.29677C9.33832 2.29404 9.28553 2.30483 9.23789 2.32813C7.56094 3.14844 6.36328 2.76407 5.09727 2.3586C3.76563 1.93477 2.39062 1.49532 0.487891 2.42422C0.435342 2.44988 0.391047 2.48977 0.360042 2.53935C0.329036 2.58893 0.312565 2.64621 0.3125 2.70469V7.38946C0.312493 7.44248 0.325976 7.49463 0.351681 7.541C0.377387 7.58738 0.414469 7.62645 0.459437 7.65454C0.504406 7.68263 0.555783 7.69882 0.608733 7.70158C0.661682 7.70434 0.714464 7.69358 0.762109 7.67032C2.43906 6.85 3.63672 7.23438 4.90469 7.63985C5.65625 7.88008 6.42188 8.125 7.2875 8.125C7.95508 8.125 8.6832 7.97969 9.51055 7.57578C9.5631 7.55013 9.60739 7.51024 9.6384 7.46066C9.6694 7.41108 9.68587 7.35379 9.68594 7.29532V2.61055C9.68641 2.55739 9.67331 2.50499 9.64788 2.4583C9.62246 2.41162 9.58554 2.37219 9.54063 2.34375ZM1.875 5.9375C1.875 6.02038 1.84208 6.09987 1.78347 6.15847C1.72487 6.21708 1.64538 6.25 1.5625 6.25C1.47962 6.25 1.40013 6.21708 1.34153 6.15847C1.28292 6.09987 1.25 6.02038 1.25 5.9375V3.4375C1.25 3.35462 1.28292 3.27514 1.34153 3.21653C1.40013 3.15793 1.47962 3.125 1.5625 3.125C1.64538 3.125 1.72487 3.15793 1.78347 3.21653C1.84208 3.27514 1.875 3.35462 1.875 3.4375V5.9375ZM5 6.25C4.75277 6.25 4.5111 6.17669 4.30554 6.03934C4.09998 5.90199 3.93976 5.70677 3.84515 5.47836C3.75054 5.24995 3.72579 4.99862 3.77402 4.75614C3.82225 4.51366 3.9413 4.29094 4.11612 4.11612C4.29093 3.9413 4.51366 3.82225 4.75614 3.77402C4.99861 3.72579 5.24995 3.75054 5.47835 3.84515C5.70676 3.93976 5.90199 4.09998 6.03934 4.30554C6.17669 4.5111 6.25 4.75278 6.25 5C6.25 5.33152 6.1183 5.64947 5.88388 5.88389C5.64946 6.11831 5.33152 6.25 5 6.25ZM8.75 6.5625C8.75 6.64538 8.71708 6.72487 8.65847 6.78347C8.59987 6.84208 8.52038 6.875 8.4375 6.875C8.35462 6.875 8.27513 6.84208 8.21653 6.78347C8.15792 6.72487 8.125 6.64538 8.125 6.5625V4.0625C8.125 3.97962 8.15792 3.90014 8.21653 3.84153C8.27513 3.78293 8.35462 3.75 8.4375 3.75C8.52038 3.75 8.59987 3.78293 8.65847 3.84153C8.71708 3.90014 8.75 3.97962 8.75 4.0625V6.5625Z" fill="#DDAD00"/>
</g>
</svg>
