<svg width="16" height="16" viewBox="0 0 16 16" fill="none" xmlns="http://www.w3.org/2000/svg">
<g id="iconamoon:arrow-up-2-fill">
<path id="Vector" fill-rule="evenodd" clip-rule="evenodd" d="M5.99998 11.3333C6.00001 11.4652 6.03912 11.594 6.11238 11.7036C6.18563 11.8132 6.28974 11.8987 6.41154 11.9491C6.53334 11.9996 6.66737 12.0128 6.79667 11.9871C6.92597 11.9613 7.04474 11.8979 7.13798 11.8047L10.4713 8.47134C10.5963 8.34632 10.6665 8.17678 10.6665 8C10.6665 7.82323 10.5963 7.65369 10.4713 7.52867L7.13798 4.19534C7.04474 4.10213 6.92597 4.03866 6.79667 4.01295C6.66737 3.98724 6.53334 4.00044 6.41154 4.05088C6.28974 4.10133 6.18563 4.18676 6.11238 4.29636C6.03912 4.40597 6.00001 4.53484 5.99998 4.66667L5.99998 11.3333Z" fill="white"/>
</g>
</svg>
